<?xml version="1.0" standalone="no"?>
<!DOCTYPE svg PUBLIC "-//W3C//DTD SVG 20010904//EN"
 "http://www.w3.org/TR/2001/REC-SVG-20010904/DTD/svg10.dtd">
<svg version="1.0" xmlns="http://www.w3.org/2000/svg"
 width="3332.000000pt" height="3085.000000pt" viewBox="0 0 3332.000000 3085.000000"
 preserveAspectRatio="xMidYMid meet">
<metadata>
Created by potrace 1.16, written by Peter Selinger 2001-2019
</metadata>
<g transform="translate(0.000000,3085.000000) scale(0.100000,-0.100000)"
fill="#000000" stroke="none">
<path d="M26050 30834 c-150 -32 -294 -97 -400 -180 l-56 -44 -354 -59 c-3624
-610 -7222 -1776 -10385 -3366 -1099 -553 -2166 -1165 -3102 -1781 l-232 -152
-492 -11 c-829 -19 -1382 -51 -2081 -121 -889 -89 -1509 -193 -2183 -365
-1462 -373 -3017 -1038 -4095 -1750 -963 -636 -1779 -1515 -2225 -2397 -215
-423 -341 -810 -406 -1248 -27 -174 -37 -602 -20 -788 34 -357 127 -715 286
-1096 480 -1153 1376 -2064 2825 -2871 336 -187 939 -474 1375 -654 l151 -62
52 -180 c329 -1134 1036 -2139 2102 -2985 391 -310 848 -607 1215 -789 1244
-615 3063 -1048 4955 -1180 498 -34 686 -40 1395 -39 700 0 1055 9 1685 39
2876 142 5509 615 8040 1447 949 312 1732 630 2555 1038 748 371 1384 755
1905 1150 94 71 151 105 310 181 698 332 1357 736 1850 1133 384 308 796 717
1081 1072 787 978 1248 2105 1396 3414 24 216 24 722 0 939 -125 1100 -589
2183 -1339 3123 -188 235 -316 377 -557 618 -245 245 -395 379 -651 585 -1264
1016 -2952 1758 -4990 2194 -778 166 -1473 259 -2340 311 -283 18 -1256 24
-1630 11 -1106 -38 -2485 -154 -3300 -276 -1156 -175 -1987 -418 -2408 -704
l-54 -36 -256 32 c-540 69 -1138 130 -1632 168 -113 9 -211 17 -218 18 -14 2
311 193 658 385 3397 1882 7245 3165 10939 3647 l185 24 58 -51 c181 -157 368
-228 599 -228 177 0 320 40 477 132 86 50 248 218 301 311 111 197 156 401
133 605 -29 248 -110 419 -277 587 -136 136 -277 215 -447 249 -96 20 -308 20
-398 0z m-3425 -6054 c2642 -104 4852 -732 6560 -1865 489 -324 849 -618 1256
-1024 492 -492 806 -917 1068 -1441 557 -1119 584 -2312 79 -3495 -230 -538
-652 -1181 -1109 -1688 l-82 -91 6 42 c35 214 41 320 41 662 1 282 -3 385 -17
500 -74 600 -227 1113 -497 1666 -264 542 -581 1011 -1041 1539 -154 177 -597
619 -799 796 -902 795 -1975 1491 -3350 2173 -1745 867 -3445 1421 -5765 1880
-209 42 -425 84 -480 94 l-100 19 55 6 c327 38 2281 189 2805 217 116 6 226
12 245 14 95 7 905 5 1125 -4z m-9560 -920 c677 -29 1348 -78 2265 -166 2529
-241 4984 -739 7000 -1419 2033 -686 3830 -1743 5143 -3025 893 -871 1522
-1832 1727 -2635 59 -230 73 -352 74 -625 0 -308 -28 -523 -105 -789 -164
-570 -543 -1124 -1096 -1604 -92 -79 -114 -93 -215 -134 -962 -388 -2080 -637
-3828 -853 -1388 -171 -2591 -244 -4025 -244 -1597 0 -2955 92 -4600 310 -948
126 -1727 258 -3240 549 -297 57 -754 144 -1015 194 -2289 435 -3966 859
-5211 1316 l-127 46 -6 42 c-30 217 -39 731 -17 977 40 437 93 671 266 1180
698 2048 2223 4091 4366 5846 356 292 724 575 1155 889 l229 168 515 -7 c283
-3 619 -10 745 -16z m-3505 -74 c0 -2 -66 -62 -147 -133 -1040 -913 -2033
-1975 -2794 -2988 -809 -1077 -1439 -2207 -1755 -3150 -222 -664 -344 -1315
-370 -1982 l-7 -172 -81 41 c-304 152 -826 463 -1208 720 -1040 698 -1652
1444 -1841 2243 -73 309 -76 662 -8 987 132 631 530 1291 1108 1836 1151 1086
3262 2049 5279 2407 371 66 730 106 1514 169 162 13 298 24 303 25 4 0 7 -1 7
-3z m-3080 -10541 c2368 -729 5915 -1456 9030 -1849 1854 -234 3590 -356 5080
-356 511 0 1207 21 1785 54 121 7 221 12 223 11 1 -1 -129 -36 -290 -78 -1411
-368 -3178 -684 -4758 -851 -1506 -160 -2999 -205 -4305 -130 -1030 58 -2035
194 -2845 384 -1112 261 -2056 674 -2775 1215 -585 440 -1050 985 -1349 1583
-37 74 -43 93 -29 88 10 -3 115 -35 233 -71z"/>
<path d="M16265 20650 c-350 -39 -663 -130 -965 -281 -792 -397 -1341 -1138
-1489 -2009 -129 -762 57 -1525 523 -2147 95 -126 304 -344 436 -455 383 -320
853 -529 1371 -609 209 -33 590 -33 799 0 616 95 1140 358 1565 785 424 427
685 949 782 1566 25 164 26 615 0 780 -80 516 -270 955 -584 1350 -86 109
-313 336 -423 424 -382 304 -835 503 -1316 576 -157 24 -557 35 -699 20z"/>
<path d="M4378 5775 c-1593 -151 -2720 -1108 -2943 -2500 -26 -158 -31 -537
-11 -715 76 -650 339 -1204 785 -1651 235 -235 456 -392 766 -544 407 -201
824 -312 1330 -355 155 -13 665 -13 820 0 574 49 1027 178 1608 458 l177 85 0
623 0 624 -52 -24 c-29 -13 -139 -65 -244 -114 -619 -292 -977 -411 -1394
-464 -138 -17 -555 -17 -680 0 -714 100 -1242 442 -1508 977 -159 320 -208
717 -131 1070 108 498 437 899 931 1135 214 102 411 160 683 202 187 29 564
31 760 4 465 -63 843 -188 1340 -439 121 -62 223 -113 227 -115 4 -2 8 282 8
631 l0 634 -92 51 c-394 217 -859 355 -1415 418 -194 22 -769 28 -965 9z"/>
<path d="M29310 5779 c-901 -90 -1530 -497 -1740 -1127 -104 -315 -101 -713
10 -1045 153 -458 528 -809 1155 -1083 156 -68 311 -128 625 -241 408 -147
589 -226 735 -320 100 -65 185 -154 226 -238 32 -66 34 -75 34 -175 -1 -86 -5
-116 -24 -163 -91 -228 -366 -347 -806 -347 -586 0 -1107 197 -1887 714 l-28
18 0 -616 0 -617 239 -118 c668 -331 1111 -431 1858 -418 398 6 602 38 907
138 794 261 1234 860 1203 1639 -23 573 -266 979 -792 1323 -224 146 -510 277
-1020 467 -665 247 -840 337 -968 496 -51 63 -87 156 -87 223 0 49 26 135 55
181 63 100 212 190 385 234 490 123 1117 -1 2033 -402 l137 -60 0 558 0 559
-202 79 c-459 180 -833 279 -1258 332 -115 15 -672 21 -790 9z"/>
<path d="M10680 5598 c-33 -78 -2243 -5563 -2248 -5580 -4 -17 36 -18 744 -18
l749 0 210 555 209 555 1257 0 1256 0 229 -552 229 -553 763 -3 c419 -1 762 0
762 3 0 3 -562 1271 -1249 2818 l-1250 2812 -821 3 -821 2 -19 -42z m1309
-2408 c244 -589 442 -1073 439 -1075 -3 -3 -387 -4 -854 -3 l-850 3 405 1073
c223 589 407 1072 410 1072 4 0 206 -482 450 -1070z"/>
<path d="M16130 2820 l0 -2820 710 0 710 0 0 1129 0 1130 683 4 c582 3 697 6
787 21 311 50 559 143 790 297 124 82 333 290 419 417 341 504 391 1151 130
1688 -259 533 -773 872 -1431 943 -63 7 -569 11 -1448 11 l-1350 0 0 -2820z
m2328 1756 c218 -36 351 -89 449 -180 67 -62 113 -140 139 -236 25 -92 25
-320 0 -409 -55 -198 -180 -321 -396 -390 -142 -45 -232 -53 -677 -58 l-423
-5 0 652 0 652 403 -5 c309 -3 426 -8 505 -21z"/>
<path d="M21910 2820 l0 -2820 2085 0 2085 0 0 520 0 520 -1375 0 -1375 0 0
670 0 670 1285 0 1285 0 0 525 0 525 -1285 0 -1285 0 0 585 0 585 1345 0 1345
0 0 520 0 520 -2055 0 -2055 0 0 -2820z"/>
</g>
</svg>
