<?xml version="1.0" standalone="no"?>
<!DOCTYPE svg PUBLIC "-//W3C//DTD SVG 20010904//EN"
 "http://www.w3.org/TR/2001/REC-SVG-20010904/DTD/svg10.dtd">
<svg version="1.0" xmlns="http://www.w3.org/2000/svg"
 width="975.000000pt" height="522.000000pt" viewBox="0 0 975.000000 522.000000"
 preserveAspectRatio="xMidYMid meet">
<metadata>
Created by potrace 1.16, written by Peter Selinger 2001-2019
</metadata>
<g transform="translate(0.000000,522.000000) scale(0.100000,-0.100000)"
fill="#000000" stroke="none">
<path d="M1643 4595 c-151 -76 -178 -298 -49 -401 l36 -29 0 -330 0 -331 -63
-62 -63 -62 -32 33 c-18 18 -29 37 -25 42 5 4 3 5 -3 2 -6 -4 -22 5 -35 19
-22 23 -22 26 -7 35 78 44 118 115 118 213 0 141 -85 232 -227 244 -224 18
-358 -236 -212 -402 26 -29 39 -54 39 -73 0 -73 19 -106 113 -195 l92 -88 -87
-85 -88 -85 0 -788 c0 -433 -3 -831 -7 -884 l-6 -98 61 0 62 0 0 863 -1 862
113 107 113 108 -128 122 -128 123 1 76 c0 71 -2 77 -25 89 -55 29 -74 92 -46
155 59 133 258 79 238 -65 -7 -55 -48 -98 -99 -106 l-38 -7 0 -67 0 -67 120
-117 121 -117 119 112 120 112 0 404 c0 342 -2 403 -14 403 -26 0 -75 51 -87
90 -10 32 -9 44 7 76 36 73 110 97 182 60 89 -46 77 -191 -18 -222 l-35 -12
-4 -403 -3 -404 -244 -234 -244 -234 0 -853 0 -854 55 0 55 0 0 828 -1 827
246 240 246 240 -1 138 0 137 163 0 162 0 28 -35 c86 -107 280 -113 381 -11
86 86 90 242 8 330 -42 45 -118 76 -186 76 -88 0 -134 -18 -189 -72 l-48 -48
-159 0 -160 0 0 116 0 116 45 40 c64 56 85 102 85 183 0 76 -14 117 -61 170
-47 54 -99 75 -185 75 -55 0 -81 -5 -121 -25z m857 -690 c41 -21 64 -68 57
-118 -16 -118 -186 -147 -243 -41 l-19 34 -207 0 c-178 0 -208 2 -208 15 0 13
30 15 208 15 l208 0 13 36 c24 66 120 96 191 59z"/>
<path d="M2556 3038 c-3 -112 -9 -321 -12 -465 l-7 -263 -162 0 -163 0 -6
-162 c-3 -90 -8 -291 -11 -448 -3 -157 -8 -318 -11 -357 l-6 -73 202 0 201 0
-8 63 c-10 82 -10 1764 0 1845 5 37 4 62 -1 62 -5 0 -12 -91 -16 -202z"/>
<path d="M4121 3059 c-21 -146 -26 -169 -40 -164 -109 43 -331 61 -435 36
-216 -52 -358 -246 -398 -540 l-11 -88 -177 5 -178 5 -6 -69 c-15 -149 22
-355 88 -500 119 -255 314 -419 579 -485 162 -40 464 -35 628 11 l36 10 6 73
c4 39 9 120 13 178 l6 106 -112 -29 c-218 -54 -377 -46 -526 27 -135 66 -252
224 -306 411 -29 103 -32 329 -5 439 39 153 141 312 241 370 135 79 325 92
512 34 36 -11 68 -18 71 -16 2 3 13 70 24 149 10 78 21 158 24 176 3 17 2 32
-3 32 -4 0 -19 -77 -31 -171z"/>
<path d="M5320 2939 c-30 -5 -65 -6 -77 -4 -14 3 -23 1 -23 -6 0 -7 -10 -9
-25 -7 -15 3 -22 1 -18 -5 4 -6 -4 -8 -20 -5 -16 3 -24 1 -20 -5 4 -6 -2 -8
-15 -5 -12 4 -20 3 -17 -2 3 -4 -10 -14 -28 -21 -103 -42 -239 -150 -306 -244
l-34 -48 176 5 c194 5 185 8 128 -54 -13 -15 -43 -65 -66 -110 -33 -66 -47
-84 -66 -86 -49 -6 -303 -53 -307 -57 -12 -12 -23 -115 -23 -225 0 -207 43
-358 141 -498 156 -222 395 -336 670 -319 124 8 194 27 310 84 79 38 109 61
186 137 107 107 171 208 213 341 71 220 62 497 -23 688 -58 132 -179 269 -302
343 -60 36 -180 84 -224 90 -8 1 -33 5 -55 8 -89 13 -122 14 -175 5z m141
-295 c30 -9 64 -22 77 -30 12 -8 34 -22 50 -31 l27 -17 -19 22 -19 22 64 0
c35 0 127 3 204 6 l140 7 38 -64 c39 -66 85 -194 75 -205 -4 -3 -81 0 -172 7
-91 7 -168 10 -171 7 -3 -3 1 -23 9 -46 40 -112 44 -299 11 -427 -51 -197
-200 -350 -359 -370 -208 -26 -413 144 -473 393 -21 89 -21 265 1 356 32 136
126 277 222 337 80 49 195 62 295 33z"/>
<path d="M8806 2903 l-219 -3 7 -102 c3 -56 8 -104 11 -106 2 -2 197 1 432 7
235 6 473 12 528 13 l100 3 28 -57 c22 -42 30 -76 34 -136 14 -198 -57 -357
-202 -457 -50 -35 -68 -41 -153 -52 -53 -8 -248 -16 -433 -19 l-337 -7 -6
-301 c-4 -165 -9 -322 -12 -348 l-6 -48 181 0 180 0 -5 158 c-2 86 -6 223 -9
303 l-4 147 142 4 c335 12 559 132 659 353 19 43 23 71 26 190 3 126 1 146
-19 200 -41 110 -170 206 -316 236 -35 7 -63 15 -63 19 0 6 -217 7 -544 3z"/>
<path d="M6535 2888 c-2 -7 -5 -67 -7 -134 l-3 -121 99 5 99 5 -5 -187 c-3
-103 -7 -188 -9 -190 -2 -2 -53 5 -114 14 -60 10 -113 15 -116 12 -5 -5 -83
-626 -122 -974 l-4 -28 167 0 167 0 7 178 c4 97 15 335 26 527 10 193 22 416
25 498 l7 147 77 0 c42 0 106 3 142 6 l67 7 17 -59 c9 -33 41 -135 71 -228 30
-92 54 -172 54 -176 0 -4 -73 5 -162 21 -90 16 -165 29 -167 29 -9 0 16 -79
127 -400 106 -307 146 -430 166 -522 l6 -28 139 0 139 0 7 38 c11 59 60 207
166 499 129 356 219 656 231 773 6 59 -19 46 -32 -17 -21 -102 -70 -293 -101
-390 l-30 -94 -32 6 c-18 3 -67 12 -111 19 l-78 13 -14 -32 c-26 -64 -85 -271
-98 -344 l-12 -76 -13 80 c-16 99 -61 264 -151 555 -80 259 -126 438 -136 521
l-7 59 -239 0 c-182 0 -240 -3 -243 -12z"/>
<path d="M7670 2863 c0 -21 -9 -75 -18 -119 l-18 -81 175 3 c97 3 208 6 247 8
l72 3 6 -66 c35 -400 48 -572 43 -577 -2 -3 -72 4 -153 15 -82 11 -150 18
-152 16 -2 -2 1 -97 7 -212 6 -114 13 -288 17 -385 l7 -178 182 0 182 0 -4 48
c-2 26 -19 232 -38 457 -40 474 -61 761 -71 963 l-7 142 -238 0 -239 0 0 -37z"/>
<path d="M8931 2680 c-24 -5 -45 -11 -47 -13 -2 -2 1 -93 6 -203 5 -109 10
-227 10 -261 0 -40 4 -63 11 -63 9 0 10 68 7 255 l-5 255 36 7 c65 14 262 7
311 -11 38 -13 42 -13 25 -1 -10 8 -35 20 -55 26 -48 14 -245 20 -299 9z"/>
<path d="M9090 650 c-22 -17 -31 -18 -73 -8 -42 10 -50 9 -75 -9 -15 -11 -34
-32 -42 -46 -14 -24 -13 -28 5 -41 18 -13 22 -12 41 5 18 17 30 19 72 13 69
-9 96 0 120 38 19 30 20 34 5 50 -20 22 -22 22 -53 -2z"/>
<path d="M5134 581 l7 -78 -38 6 c-87 15 -148 -17 -184 -94 -37 -80 -20 -178
40 -228 27 -22 42 -27 87 -27 31 0 65 5 76 11 15 8 22 8 28 -1 4 -6 23 -10 45
-8 l38 3 1 247 1 248 -54 0 -54 0 7 -79z m-10 -147 c13 -5 16 -23 16 -95 0
-77 -2 -90 -19 -99 -33 -17 -66 -11 -92 16 -19 20 -24 36 -24 79 0 43 5 59 24
79 24 25 61 33 95 20z"/>
<path d="M2180 628 c0 -2 -1 -105 -3 -231 l-2 -227 53 0 52 0 0 230 0 230 -50
0 c-27 0 -50 -1 -50 -2z"/>
<path d="M5956 615 c-169 -60 -204 -317 -57 -420 41 -29 48 -30 144 -30 l101
0 8 44 c4 25 7 46 5 47 -1 1 -24 -2 -51 -8 -65 -14 -115 2 -155 47 -56 64 -54
154 5 213 33 33 36 34 103 30 l69 -4 5 41 c4 25 1 42 -6 47 -20 13 -129 8
-171 -7z"/>
<path d="M3086 592 c-3 -5 -8 -28 -12 -50 -6 -36 -10 -42 -30 -42 -21 0 -24
-5 -24 -40 0 -36 3 -40 25 -40 25 0 25 -1 25 -85 0 -93 16 -147 48 -164 23
-12 118 -15 125 -3 3 4 8 22 12 41 7 32 6 33 -22 27 -52 -12 -67 11 -71 103
l-4 81 46 0 46 0 0 40 0 40 -46 0 -47 0 7 50 7 50 -40 0 c-22 0 -42 -4 -45 -8z"/>
<path d="M3517 593 c-4 -3 -7 -26 -7 -50 0 -39 -2 -43 -24 -43 -16 0 -26 -7
-30 -22 -12 -45 -7 -58 19 -58 25 0 25 -1 25 -85 0 -139 26 -175 126 -175 39
0 46 3 54 26 17 45 13 56 -18 50 -50 -12 -66 12 -70 103 l-4 81 46 0 46 0 0
40 0 40 -45 0 -46 0 7 50 7 50 -40 0 c-22 0 -43 -3 -46 -7z"/>
<path d="M4147 593 c-4 -3 -7 -26 -7 -50 0 -39 -2 -43 -25 -43 -22 0 -25 -4
-25 -40 0 -36 3 -40 24 -40 24 0 24 -2 28 -106 3 -102 4 -107 32 -130 24 -21
37 -24 85 -22 l56 3 3 39 c3 37 2 38 -22 32 -18 -4 -31 -1 -46 14 -16 16 -20
33 -20 95 l0 75 39 0 c32 0 40 4 45 23 13 50 9 57 -40 57 l-46 0 4 50 3 50
-41 0 c-22 0 -44 -3 -47 -7z"/>
<path d="M7997 593 c-4 -3 -7 -26 -7 -50 0 -39 -2 -43 -25 -43 -22 0 -25 -4
-25 -40 0 -36 3 -40 24 -40 24 0 24 -2 28 -106 3 -102 4 -107 32 -130 24 -21
37 -24 85 -22 l56 3 3 39 c3 37 2 38 -22 32 -18 -4 -31 -1 -46 14 -16 16 -20
33 -20 95 l0 75 40 0 c31 0 40 4 40 18 0 9 3 27 6 40 6 20 3 22 -40 22 l-46 0
0 50 0 50 -38 0 c-21 0 -42 -3 -45 -7z"/>
<path d="M2820 510 c-48 -12 -80 -52 -80 -99 0 -47 23 -72 100 -111 59 -30 75
-52 44 -64 -23 -9 -74 -7 -110 3 -31 9 -32 8 -37 -27 -4 -19 -4 -39 -1 -44 9
-14 162 -9 199 6 39 17 55 42 55 89 0 48 -32 84 -102 114 -41 18 -58 31 -56
42 3 13 16 16 70 15 l66 -2 6 36 c3 20 4 37 3 38 -9 8 -129 11 -157 4z"/>
<path d="M4479 510 c-81 -24 -123 -85 -123 -179 -1 -84 25 -130 90 -161 84
-41 199 -7 241 72 27 50 24 153 -5 200 -39 62 -126 92 -203 68z m100 -95 c57
-73 24 -191 -51 -183 -99 10 -96 208 3 208 18 0 35 -9 48 -25z"/>
<path d="M5397 506 c-50 -18 -62 -30 -86 -80 -29 -59 -28 -142 2 -187 41 -60
80 -79 166 -79 112 0 121 4 121 52 0 33 -3 39 -17 34 -58 -16 -104 -17 -135
-2 -36 17 -62 51 -53 66 4 6 53 10 111 10 l104 0 0 46 c0 55 -23 107 -56 129
-35 23 -111 28 -157 11z"/>
<path d="M6295 501 c-48 -22 -69 -44 -90 -94 -55 -131 37 -266 173 -253 92 8
145 55 162 144 29 156 -105 268 -245 203z m128 -93 c46 -62 15 -169 -51 -176
-54 -6 -92 59 -77 134 14 75 86 98 128 42z"/>
<path d="M7340 510 c-19 -4 -39 -8 -45 -10 -5 -2 -18 0 -28 5 -9 4 -33 4 -53
0 l-37 -6 7 -52 c3 -29 6 -139 6 -244 l0 -193 50 0 50 0 0 78 0 77 62 -3 c49
-2 70 2 95 17 47 30 76 93 77 167 0 119 -75 186 -184 164z m55 -95 c21 -20 25
-34 25 -80 0 -46 -4 -60 -25 -80 -23 -24 -57 -31 -89 -19 -13 5 -16 23 -16 93
0 54 5 92 12 99 20 20 67 14 93 -13z"/>
<path d="M8692 509 c-23 -5 -56 -17 -71 -29 -61 -43 -91 -163 -56 -229 16 -32
65 -77 94 -86 13 -4 17 -12 13 -31 -3 -18 1 -30 17 -40 24 -18 28 -42 6 -50
-8 -4 -15 -15 -15 -25 0 -15 7 -19 40 -19 44 0 60 18 60 69 0 30 -29 71 -50
71 -5 0 -10 5 -10 10 0 6 18 10 39 10 61 0 71 7 71 51 0 38 -1 39 -27 32 -85
-24 -153 20 -153 98 0 32 7 47 30 71 28 28 34 29 79 23 l48 -7 7 37 c4 20 6
38 4 40 -10 8 -89 10 -126 4z"/>
<path d="M9314 501 c-23 -10 -54 -36 -70 -56 -37 -49 -45 -150 -17 -205 46
-88 167 -116 254 -57 58 39 79 81 79 157 0 73 -19 114 -71 152 -38 29 -124 33
-175 9z m126 -93 c27 -45 27 -117 -1 -152 -32 -41 -89 -34 -114 15 -21 39 -19
98 5 137 16 26 26 32 55 32 29 0 39 -6 55 -32z"/>
<path d="M2366 503 c-15 -4 -17 -11 -12 -41 3 -21 6 -94 6 -164 l0 -128 50 0
50 0 0 120 c0 132 4 140 68 140 50 0 57 -20 55 -147 l-3 -113 51 0 50 0 -3
146 c-3 146 -3 146 -31 170 -22 19 -39 24 -83 24 -30 0 -68 -7 -84 -15 -27
-14 -30 -14 -30 0 0 15 -40 19 -84 8z"/>
<path d="M3329 503 l-25 -4 0 -164 1 -165 50 0 50 0 0 170 0 170 -25 -1 c-14
-1 -37 -4 -51 -6z"/>
<path d="M6606 503 c-16 -4 -18 -11 -12 -50 3 -25 6 -99 6 -164 l0 -119 50 0
50 0 0 124 c0 134 1 136 59 136 46 0 51 -14 51 -142 l0 -118 50 0 50 0 0 124
c0 135 0 136 60 136 42 0 50 -24 50 -149 l0 -111 50 0 50 0 0 125 c0 135 -12
185 -48 204 -30 16 -118 13 -153 -4 -27 -14 -32 -14 -51 0 -29 20 -126 20
-155 0 -19 -13 -22 -13 -27 0 -5 15 -40 18 -80 8z"/>
<path d="M8238 499 c-11 -6 -18 -22 -18 -40 l0 -31 63 7 c73 8 117 -5 117 -35
0 -20 -6 -22 -85 -35 -52 -9 -91 -38 -105 -79 -24 -73 19 -126 102 -126 27 0
59 5 71 11 16 9 22 9 25 0 4 -12 60 -15 86 -5 9 3 13 10 10 16 -3 5 -6 60 -5
121 1 185 -17 207 -161 207 -46 0 -91 -5 -100 -11z"/>
<path d="M8898 499 c-11 -6 -18 -22 -18 -40 l0 -31 63 7 c73 8 117 -5 117 -35
0 -20 -6 -22 -85 -35 -52 -9 -91 -38 -105 -79 -24 -73 19 -126 102 -126 27 0
59 5 71 11 16 9 22 9 25 0 4 -12 60 -15 86 -5 9 3 13 10 10 15 -3 5 -5 60 -5
122 1 185 -17 207 -161 207 -46 0 -91 -5 -100 -11z"/>
<path d="M3726 383 c7 -160 10 -179 41 -203 29 -22 119 -28 154 -9 15 7 24 7
34 -1 18 -15 90 -9 89 8 -1 6 -2 82 -2 167 l-2 155 -50 0 -49 0 -3 -127 -3
-128 -41 -3 c-62 -5 -69 10 -69 145 l0 113 -52 0 -51 0 4 -117z"/>
<path d="M7576 383 c7 -161 11 -179 41 -203 32 -25 127 -28 160 -5 19 13 22
13 27 0 6 -16 63 -21 81 -7 6 4 9 69 7 170 l-3 162 -49 0 -49 0 -3 -127 -3
-128 -41 -3 c-62 -5 -69 10 -69 145 l0 113 -52 0 -52 0 5 -117z"/>
</g>
</svg>
