<?xml version="1.0" standalone="no"?>
<!DOCTYPE svg PUBLIC "-//W3C//DTD SVG 20010904//EN"
 "http://www.w3.org/TR/2001/REC-SVG-20010904/DTD/svg10.dtd">
<svg version="1.0" xmlns="http://www.w3.org/2000/svg"
 width="222.000000pt" height="300.000000pt" viewBox="0 0 222.000000 300.000000"
 preserveAspectRatio="xMidYMid meet">
<metadata>
Created by potrace 1.16, written by Peter Selinger 2001-2019
</metadata>
<g transform="translate(0.000000,300.000000) scale(0.100000,-0.100000)"
fill="#000000" stroke="none">
<path d="M936 2989 c-95 -14 -205 -48 -302 -94 -306 -143 -523 -406 -606 -735
-30 -115 -31 -337 -4 -454 86 -363 348 -660 696 -787 335 -122 709 -79 1010
115 180 117 351 332 424 536 48 132 60 205 60 360 0 125 -4 158 -27 242 -35
131 -76 222 -141 323 -209 320 -562 508 -946 504 -58 -1 -131 -5 -164 -10z
m434 -39 c392 -102 696 -399 797 -776 36 -137 39 -345 5 -476 -43 -165 -106
-289 -211 -420 -224 -279 -610 -440 -956 -399 -472 54 -847 376 -958 821 -31
124 -30 330 2 454 107 417 443 730 868 811 114 21 342 14 453 -15z"/>
<path d="M1336 2603 c4 -16 11 -38 15 -51 7 -19 4 -24 -18 -33 l-27 -10 40
-24 c21 -13 49 -25 61 -25 15 0 21 -5 17 -14 -4 -9 6 -16 31 -20 25 -5 53 -24
94 -65 56 -55 72 -79 121 -183 11 -24 27 -55 35 -70 8 -16 10 -28 4 -28 -6 0
-8 -8 -5 -17 3 -10 8 -54 11 -98 3 -44 8 -92 11 -107 3 -16 2 -28 -3 -28 -11
0 -33 -72 -33 -107 0 -14 -3 -23 -7 -20 -9 9 -53 -70 -53 -95 0 -17 -3 -18
-15 -8 -12 10 -15 10 -15 -2 0 -16 -47 -83 -58 -83 -9 -1 -89 -83 -96 -99 -3
-7 -9 -5 -15 6 -10 14 -16 12 -51 -23 -22 -22 -43 -51 -46 -64 -4 -15 -15 -27
-28 -30 -147 -30 -180 -33 -239 -24 -130 19 -126 18 -141 53 -16 38 -66 82
-76 66 -4 -6 -18 3 -35 20 -16 17 -35 28 -42 26 -7 -3 -25 10 -40 29 -23 29
-29 32 -34 18 -4 -13 -12 -6 -34 31 -19 32 -30 44 -36 35 -5 -8 -11 3 -19 30
-6 23 -15 39 -19 37 -10 -7 -76 142 -83 189 -3 13 -11 20 -26 19 -26 -1 -26 0
-8 29 8 12 17 51 19 87 4 67 36 186 62 237 8 15 15 34 15 41 0 6 5 12 10 12 6
0 18 18 27 40 10 22 22 40 28 40 5 0 28 16 50 36 22 20 52 42 68 50 15 8 27
19 27 24 0 6 8 10 18 10 9 0 33 15 52 34 19 19 47 46 63 60 15 14 27 29 27 34
0 5 -36 8 -80 8 -56 -1 -80 3 -80 11 0 25 -19 21 -56 -12 -32 -29 -40 -33 -47
-20 -7 13 -15 8 -43 -26 -19 -22 -34 -46 -34 -52 0 -7 -4 -6 -10 3 -5 8 -11
12 -13 10 -24 -30 -47 -71 -47 -84 0 -8 -9 -20 -19 -26 -13 -7 -17 -16 -14
-31 5 -17 2 -20 -13 -16 -28 9 -50 -13 -65 -61 -7 -26 -17 -41 -25 -38 -12 5
-24 -42 -24 -96 0 -20 -4 -26 -15 -22 -11 5 -15 -1 -17 -22 -2 -43 -2 -46 5
-86 5 -31 3 -36 -10 -31 -13 5 -15 2 -10 -11 4 -10 7 -38 7 -62 0 -31 6 -50
20 -64 12 -12 18 -26 13 -33 -17 -26 -12 -77 8 -90 23 -14 25 -27 4 -27 -11 0
-7 -11 14 -42 17 -24 25 -45 20 -49 -6 -3 8 -22 31 -43 22 -20 38 -41 35 -46
-3 -5 3 -14 14 -19 10 -6 28 -25 40 -43 11 -18 38 -44 60 -58 23 -14 41 -31
41 -38 0 -7 8 -16 18 -19 19 -7 74 -44 82 -55 9 -11 90 -38 114 -38 12 0 40 9
61 20 39 21 52 21 139 3 l30 -5 -30 -15 c-60 -31 -77 -45 -64 -53 7 -4 40 5
76 21 75 34 83 35 132 10 28 -14 43 -16 62 -9 25 10 25 10 -15 29 -26 12 -35
20 -25 23 60 21 197 48 256 50 54 2 80 8 109 26 21 13 33 26 27 28 -17 5 -5
22 16 22 18 1 72 43 72 57 1 4 18 22 39 38 21 17 37 33 34 37 -2 5 7 23 21 41
31 40 32 47 9 47 -17 1 -17 1 0 11 25 15 53 72 38 77 -9 3 -6 11 7 26 29 31
55 96 38 96 -11 0 -11 10 1 52 8 33 9 54 3 56 -5 2 -7 17 -5 33 3 16 7 43 10
60 4 25 2 30 -11 25 -14 -5 -15 1 -12 44 2 34 -1 49 -8 46 -8 -3 -14 17 -18
56 -5 42 -11 58 -20 55 -8 -3 -17 11 -24 39 -7 27 -16 42 -24 39 -8 -2 -23 16
-37 46 -16 31 -30 48 -38 45 -7 -3 -13 -2 -13 3 0 16 -59 81 -65 72 -3 -6 -22
8 -43 30 -20 23 -38 36 -40 30 -2 -7 -27 8 -57 34 -53 45 -54 45 -57 20 l-3
-25 -37 25 c-46 31 -50 31 -42 -2z"/>
<path d="M162 568 c-12 -6 -25 -21 -28 -33 -3 -12 -4 -107 -2 -211 3 -216 12
-246 81 -292 36 -24 52 -27 138 -30 122 -5 173 14 216 79 28 42 28 43 31 237
2 107 1 204 -2 216 -11 46 -93 54 -110 11 -3 -9 -6 -87 -6 -173 -1 -240 -14
-272 -117 -272 -44 0 -58 5 -78 25 -25 24 -25 27 -25 200 0 131 -4 185 -14
210 -8 19 -19 35 -25 35 -5 0 -15 2 -23 4 -7 3 -23 0 -36 -6z"/>
<path d="M1294 566 c-35 -15 -35 -15 -149 -309 -82 -210 -87 -241 -41 -253 54
-13 70 -2 95 64 l25 62 107 0 107 0 17 -50 c21 -63 38 -80 79 -80 38 0 56 15
56 49 0 22 -152 417 -186 482 -7 15 -28 32 -45 38 -18 6 -32 11 -33 11 -1 -1
-15 -7 -32 -14z"/>
<path d="M753 563 c-46 -9 -48 -21 -48 -283 0 -273 2 -280 61 -280 55 0 64 18
64 136 l0 104 96 0 c111 0 134 9 134 50 0 41 -23 50 -134 50 l-96 0 0 65 0 65
124 0 c133 0 151 6 144 52 -5 39 -41 48 -188 46 -74 0 -145 -3 -157 -5z"/>
<path d="M1703 563 c-49 -10 -53 -30 -53 -283 0 -197 3 -239 16 -258 20 -29
79 -31 94 -3 5 11 10 91 11 183 l1 163 43 -168 c23 -92 48 -174 55 -182 8 -9
30 -15 56 -15 55 0 56 2 110 210 l43 165 0 -176 c1 -195 3 -203 63 -197 55 5
59 23 56 290 -3 279 -1 273 -99 273 -79 0 -88 -12 -123 -152 -15 -59 -32 -128
-40 -152 l-13 -44 -32 124 c-18 68 -37 140 -42 160 -5 20 -15 42 -23 48 -15
13 -90 22 -123 14z"/>
</g>
</svg>
