<?xml version="1.0" standalone="no"?>
<!DOCTYPE svg PUBLIC "-//W3C//DTD SVG 20010904//EN"
 "http://www.w3.org/TR/2001/REC-SVG-20010904/DTD/svg10.dtd">
<svg version="1.0" xmlns="http://www.w3.org/2000/svg"
 width="128.000000pt" height="128.000000pt" viewBox="0 0 128.000000 128.000000"
 preserveAspectRatio="xMidYMid meet">

<g transform="translate(0.000000,128.000000) scale(0.100000,-0.100000)"
fill="#000000" stroke="none">
<path d="M680 1234 c-36 -7 -82 -14 -102 -15 -21 -2 -40 -9 -43 -17 -2 -7 -8
-11 -13 -8 -14 9 -35 -11 -37 -36 -1 -20 -6 -23 -34 -20 -18 2 -38 -2 -46 -8
-8 -6 -19 -9 -25 -5 -12 8 -90 -48 -140 -99 -29 -31 -33 -39 -23 -55 10 -16 6
-23 -33 -51 -24 -17 -42 -36 -38 -41 3 -5 17 0 31 11 32 25 40 25 53 1 8 -17
5 -23 -20 -38 -30 -17 -39 -33 -20 -33 6 0 28 12 50 26 32 21 43 24 54 14 19
-15 45 -7 134 43 47 26 71 46 67 54 -2 8 3 17 13 20 28 11 136 84 152 105 12
14 30 19 80 21 l64 2 29 -47 29 -46 -51 -76 c-28 -41 -58 -79 -66 -83 -8 -5
-16 -20 -18 -33 -4 -23 -12 -27 -113 -48 -81 -17 -128 -22 -181 -18 -56 4
-104 -1 -218 -24 -80 -16 -151 -32 -157 -36 -5 -3 -8 -18 -5 -32 4 -19 -2 -33
-19 -48 -29 -27 -41 -71 -25 -93 6 -9 14 -23 18 -31 4 -8 15 -24 25 -34 10
-11 20 -36 23 -55 4 -20 8 -46 10 -57 6 -25 74 -127 89 -133 15 -6 63 -58 110
-119 21 -29 48 -54 59 -58 38 -12 157 58 157 93 0 7 5 13 11 13 7 0 34 16 62
36 79 57 358 180 483 213 29 8 44 18 48 34 l6 22 19 -22 c11 -13 28 -23 39
-23 36 0 86 43 102 87 13 40 13 43 -9 67 -12 13 -44 35 -69 48 -63 31 -82 47
-82 70 0 11 -19 32 -45 50 -46 33 -52 42 -35 53 21 13 10 54 -22 79 -22 17
-28 26 -17 26 26 0 43 28 44 74 2 33 -8 56 -48 121 -66 104 -104 142 -164 160
-55 17 -56 17 -143 -1z"/>
</g>
</svg>
